<?xml version="1.0" encoding="utf-8"?>
<!-- Generator: Adobe Illustrator 22.1.0, SVG Export Plug-In . SVG Version: 6.00 Build 0)  -->
<svg version="1.1" id="Laag_1" xmlns="http://www.w3.org/2000/svg" xmlns:xlink="http://www.w3.org/1999/xlink" x="0px" y="0px"
	 viewBox="0 0 67.4 62.5" style="enable-background:new 0 0 67.4 62.5;" xml:space="preserve">
<style type="text/css">
	.st0{fill:#FEFEFE;}
	.st1{fill:#28A8DF;}
	.st2{fill:#29A9DF;}
	.st3{fill:#28A9DF;}
</style>
<path class="st0" d="M34.1,1C44.4,1,54.8,1.1,65.2,1c1.9,0,2.3,0.5,2.3,2.3c-0.1,19.7-0.1,39.4,0,59.2c0,1.7-0.2,2.4-2.2,2.4
	c-20.8-0.1-41.7-0.1-62.5,0c-1.8,0-2.1-0.4-2.1-2.1C0.7,42.8,0.7,23,0.6,3.2C0.6,1,1.4,1,3,1C13.4,1,23.7,1,34.1,1z"/>
<path class="st1" d="M19.1,57.8C5.8,50.6,4.5,29.1,16.9,20.3c1.7-1.2,3.6-2.3,5.5-3.2c5.9-2.6,10.2-6.3,9.6-14.1
	c3.9,3.7,7.1,6.8,10.9,10.4c-4.6,0.1-8.1,1.3-10.8,4.5c-3.1,3.8-3.8,8.1-2,12.6c0.5,1.2,1.2,2.3-0.9,2.7
	c-10.1,2.2-15.5,14.7-10,23.9C19.3,57.3,19.1,57.6,19.1,57.8z"/>
<path class="st2" d="M54.3,23.8c5.3,6,8.6,12.3,6.3,20.2c-2.5,8.8-8.3,14.4-17.4,18.2c7.3-8.2,8-14.2,3.1-22.7
	c-0.5-0.9-1.1-1.4,0.2-2.4C53.2,31.9,53.2,31.9,54.3,23.8z"/>
<path class="st3" d="M42.6,49c0,5.4-4.1,9.4-9.6,9.3c-5.2-0.1-9.2-4-9.3-9.2c0-5.3,4.2-9.6,9.4-9.6C38.4,39.4,42.7,43.7,42.6,49z"/>
<path class="st2" d="M48.7,25.8c0,3.9-3.1,7.1-7,7.2c-4,0.1-7.3-3.2-7.3-7.3c0-4.1,3.4-7.4,7.4-7.2C45.7,18.7,48.7,21.9,48.7,25.8z"
	/>
</svg>
